<?xml version="1.0" standalone="no"?>
<!DOCTYPE svg PUBLIC "-//W3C//DTD SVG 1.1//EN" "http://www.w3.org/Graphics/SVG/1.1/DTD/svg11.dtd">
<svg width="200" height="48" version="1.1" xmlns="http://www.w3.org/2000/svg">
   <g id="barcode" fill="#000000">
      <rect x="0" y="0" width="200" height="59" fill="#FFFFFF" />
      <rect x="0.00" y="0.00" width="2.00" height="50.00" />
      <rect x="3.00" y="0.00" width="1.00" height="50.00" />
      <rect x="6.00" y="0.00" width="1.00" height="50.00" />
      <rect x="11.00" y="0.00" width="1.00" height="50.00" />
      <rect x="16.00" y="0.00" width="1.00" height="50.00" />
      <rect x="18.00" y="0.00" width="2.00" height="50.00" />
      <rect x="22.00" y="0.00" width="2.00" height="50.00" />
      <rect x="25.00" y="0.00" width="2.00" height="50.00" />
      <rect x="28.00" y="0.00" width="4.00" height="50.00" />
      <rect x="33.00" y="0.00" width="1.00" height="50.00" />
      <rect x="36.00" y="0.00" width="1.00" height="50.00" />
      <rect x="41.00" y="0.00" width="2.00" height="50.00" />
      <rect x="44.00" y="0.00" width="1.00" height="50.00" />
      <rect x="46.00" y="0.00" width="2.00" height="50.00" />
      <rect x="50.00" y="0.00" width="1.00" height="50.00" />
      <rect x="55.00" y="0.00" width="1.00" height="50.00" />
      <rect x="58.00" y="0.00" width="1.00" height="50.00" />
      <rect x="61.00" y="0.00" width="4.00" height="50.00" />
      <rect x="66.00" y="0.00" width="1.00" height="50.00" />
      <rect x="68.00" y="0.00" width="1.00" height="50.00" />
      <rect x="71.00" y="0.00" width="4.00" height="50.00" />
      <rect x="77.00" y="0.00" width="1.00" height="50.00" />
      <rect x="80.00" y="0.00" width="4.00" height="50.00" />
      <rect x="86.00" y="0.00" width="1.00" height="50.00" />
      <rect x="88.00" y="0.00" width="2.00" height="50.00" />
      <rect x="94.00" y="0.00" width="1.00" height="50.00" />
      <rect x="96.00" y="0.00" width="1.00" height="50.00" />
      <rect x="99.00" y="0.00" width="1.00" height="50.00" />
      <rect x="102.00" y="0.00" width="2.00" height="50.00" />
      <rect x="106.00" y="0.00" width="3.00" height="50.00" />
      <rect x="110.00" y="0.00" width="1.00" height="50.00" />
      <rect x="113.00" y="0.00" width="2.00" height="50.00" />
      <rect x="116.00" y="0.00" width="1.00" height="50.00" />
      <rect x="121.00" y="0.00" width="1.00" height="50.00" />
      <rect x="124.00" y="0.00" width="1.00" height="50.00" />
      <rect x="126.00" y="0.00" width="2.00" height="50.00" />
      <rect x="132.00" y="0.00" width="1.00" height="50.00" />
      <rect x="134.00" y="0.00" width="3.00" height="50.00" />
      <rect x="139.00" y="0.00" width="2.00" height="50.00" />
      <rect x="143.00" y="0.00" width="2.00" height="50.00" />
      <rect x="147.00" y="0.00" width="1.00" height="50.00" />
      <rect x="149.00" y="0.00" width="1.00" height="50.00" />
      <rect x="154.00" y="0.00" width="1.00" height="50.00" />
      <rect x="157.00" y="0.00" width="4.00" height="50.00" />
      <rect x="163.00" y="0.00" width="1.00" height="50.00" />
      <rect x="165.00" y="0.00" width="2.00" height="50.00" />
      <rect x="171.00" y="0.00" width="1.00" height="50.00" />
      <rect x="173.00" y="0.00" width="1.00" height="50.00" />
      <rect x="176.00" y="0.00" width="1.00" height="50.00" />
      <rect x="178.00" y="0.00" width="1.00" height="50.00" />
      <rect x="181.00" y="0.00" width="4.00" height="50.00" />
      <rect x="187.00" y="0.00" width="2.00" height="50.00" />
      <rect x="192.00" y="0.00" width="3.00" height="50.00" />
      <rect x="196.00" y="0.00" width="1.00" height="50.00" />
      <rect x="198.00" y="0.00" width="2.00" height="50.00" />
   </g>
</svg>